<svg width="259" height="256" viewBox="0 0 259 256" fill="none" xmlns="http://www.w3.org/2000/svg">
<path d="M133.701 239.402C197.049 239.402 248.402 188.049 248.402 124.701C248.402 61.3534 197.049 10 133.701 10C70.3534 10 19 61.3534 19 124.701C19 188.049 70.3534 239.402 133.701 239.402Z" fill="url(#paint0_linear_5_1128)"/>
<path fill-rule="evenodd" clip-rule="evenodd" d="M175.93 181.576C175.837 181.517 175.726 181.483 175.608 181.483C175.273 181.483 175.002 181.754 175.002 182.089V238.395C175.002 238.729 175.273 239 175.608 239C175.942 239 176.213 238.729 176.213 238.395V227.579C183.984 217.534 192.547 215.018 199.166 214.991C202.517 214.977 205.383 215.602 207.412 216.231C208.426 216.545 209.228 216.859 209.775 217.094C210.048 217.211 210.257 217.309 210.397 217.376C210.455 217.404 210.501 217.427 210.535 217.444L217.872 224.781C218.072 224.981 218.397 224.981 218.597 224.781C218.798 224.581 218.798 224.256 218.597 224.056L211.261 216.72C211.245 216.687 211.223 216.642 211.196 216.586C211.13 216.448 211.035 216.243 210.921 215.974C210.693 215.436 210.388 214.646 210.084 213.647C209.478 211.648 208.881 208.821 208.923 205.51C209.006 198.939 211.599 190.403 221.759 182.602H233.4C233.683 182.602 233.913 182.372 233.913 182.089C233.913 181.806 233.683 181.576 233.4 181.576H221.591H221.58H175.93ZM208.65 215.559L199.367 206.276L199.345 206.272C199.221 206.25 199.037 206.219 198.798 206.186C198.321 206.119 197.629 206.041 196.776 205.998C195.069 205.912 192.729 205.968 190.192 206.53C185.209 207.634 179.458 210.687 176.213 218.525V225.933C183.973 216.468 192.477 213.992 199.161 213.965C202.64 213.951 205.613 214.599 207.715 215.251C208.049 215.354 208.361 215.458 208.65 215.559ZM200.053 205.511C200.018 205.462 199.975 205.418 199.924 205.383L199.596 205.055C199.587 205.003 199.577 204.947 199.567 204.888C199.491 204.431 199.399 203.767 199.338 202.947C199.217 201.306 199.224 199.05 199.733 196.588C200.744 191.699 203.732 185.976 211.714 182.602H220.105C210.535 190.383 207.981 198.856 207.898 205.497C207.854 208.937 208.473 211.871 209.103 213.945C209.202 214.27 209.301 214.574 209.398 214.856L200.053 205.511ZM198.316 203.022C198.337 203.318 198.363 203.594 198.391 203.849L191.533 196.992C191.516 196.92 191.493 196.817 191.466 196.688C191.409 196.403 191.339 195.988 191.29 195.474C191.191 194.445 191.176 193.031 191.508 191.486C192.166 188.424 194.194 184.789 199.811 182.602H209.311C202.45 186.197 199.706 191.656 198.729 196.38C198.196 198.959 198.19 201.314 198.316 203.022ZM198.168 205.076C197.78 205.036 197.33 204.999 196.827 204.974C195.055 204.885 192.62 204.942 189.97 205.529C185.188 206.588 179.715 209.376 176.213 216.097V205.536C178.419 200.196 182.044 198.262 185.128 197.641C186.717 197.321 188.174 197.348 189.236 197.457C189.766 197.511 190.195 197.585 190.489 197.645C190.625 197.673 190.732 197.697 190.807 197.715L198.168 205.076ZM184.925 196.635C181.962 197.232 178.584 198.947 176.213 203.179V183.122L189.551 196.459C189.482 196.451 189.412 196.444 189.34 196.436C188.206 196.321 186.641 196.29 184.925 196.635ZM197.347 182.602H177.143L190.287 195.745C190.281 195.689 190.275 195.631 190.269 195.573C190.163 194.469 190.145 192.945 190.505 191.27C191.138 188.323 192.933 184.954 197.347 182.602Z" fill="url(#paint1_linear_5_1128)"/>
<path fill-rule="evenodd" clip-rule="evenodd" d="M133.882 22.7915C133.309 22.555 132.695 22.4338 132.075 22.4349L132.07 22.4349C130.818 22.436 129.618 22.9337 128.733 23.8187C127.849 24.7032 127.351 25.9023 127.349 27.1532V33.0926H115.611L115.611 27.1452C115.615 22.784 117.349 18.6025 120.433 15.5186C123.516 12.4353 127.697 10.7012 132.057 10.6968L132.06 10.6968C134.221 10.6937 136.362 11.1165 138.36 11.9411C140.359 12.7663 142.177 13.9776 143.707 15.5058C145.238 17.0341 146.453 18.8492 147.281 20.8472C148.11 22.8453 148.537 24.9872 148.537 27.1503V32.8728H136.799V27.1503C136.799 26.5304 136.676 25.9165 136.439 25.3439C136.201 24.7712 135.853 24.2511 135.415 23.8131C134.976 23.3751 134.455 23.028 133.882 22.7915ZM132.06 10.6968L132.057 10.6968L132.06 10.6968Z" fill="url(#paint2_linear_5_1128)"/>
<path d="M132.788 224.903C157.116 224.903 176.838 205.182 176.838 180.853C176.838 156.525 157.116 136.804 132.788 136.804C108.46 136.804 88.7383 156.525 88.7383 180.853C88.7383 205.182 108.46 224.903 132.788 224.903Z" fill="url(#paint3_linear_5_1128)"/>
<path d="M202.292 132.29V98.4946C202.292 80.061 194.969 62.3824 181.935 49.3479C168.9 36.3134 151.222 28.9907 132.788 28.9907C114.354 28.9907 96.6759 36.3134 83.6414 49.3479C70.6069 62.3824 63.2842 80.061 63.2842 98.4946V132.29C63.285 140.054 61.0886 147.66 56.9489 154.228C52.8092 160.797 46.8951 166.059 39.8904 169.408C38.2805 170.175 36.9214 171.383 35.9715 172.893C35.0216 174.402 34.52 176.15 34.5249 177.933V178.116C34.5237 178.76 34.6496 179.398 34.8952 179.993C35.1408 180.589 35.5014 181.13 35.9564 181.586C36.4114 182.041 36.9518 182.403 37.5468 182.65C38.1417 182.897 38.7794 183.024 39.4234 183.024H226.144C226.788 183.024 227.425 182.897 228.02 182.65C228.615 182.403 229.156 182.041 229.611 181.586C230.066 181.13 230.426 180.589 230.672 179.993C230.917 179.398 231.043 178.76 231.042 178.116V177.933C231.043 176.155 230.54 174.414 229.592 172.91C228.644 171.406 227.29 170.202 225.686 169.436C218.677 166.085 212.76 160.818 208.62 154.244C204.48 147.67 202.286 140.058 202.292 132.29Z" fill="url(#paint4_linear_5_1128)"/>
<path fill-rule="evenodd" clip-rule="evenodd" d="M105.328 105.001C105.46 105.01 105.59 105.064 105.693 105.162L105.702 105.172L130.719 130.193C130.799 130.242 130.864 130.308 130.911 130.384L163.248 162.727C163.477 162.956 163.477 163.327 163.248 163.556C163.019 163.784 162.648 163.784 162.419 163.555L146.599 147.733C133.589 144.69 123.397 148.024 116.441 152.127C112.946 154.189 110.268 156.446 108.465 158.185C107.564 159.055 106.883 159.794 106.429 160.314C106.201 160.574 106.031 160.779 105.918 160.917L105.874 160.973V163.443C105.874 163.767 105.611 164.029 105.288 164.029C104.964 164.029 104.702 163.767 104.702 163.443V160.973C104.688 160.956 104.673 160.937 104.657 160.917C104.544 160.779 104.374 160.574 104.147 160.314C103.692 159.794 103.011 159.055 102.11 158.185C100.307 156.446 97.6291 154.189 94.1332 152.127C87.1785 148.026 76.9877 144.692 63.9785 147.73L48.0004 163.711C47.7716 163.94 47.4005 163.94 47.1717 163.711C46.9428 163.482 46.9428 163.111 47.1716 162.883L63.2099 146.842C63.2402 146.802 63.2756 146.767 63.3153 146.736L79.665 130.384C79.7118 130.308 79.7762 130.242 79.8556 130.193L88.6256 121.422C88.6459 121.398 88.6684 121.375 88.6928 121.355L104.87 105.174C104.88 105.164 104.891 105.155 104.901 105.145C104.992 105.066 105.101 105.019 105.214 105.005C105.252 105 105.29 104.999 105.328 105.001ZM65.5024 146.206C78.0133 143.779 87.8939 147.087 94.7286 151.118C98.3195 153.236 101.07 155.553 102.924 157.342C103.657 158.05 104.251 158.675 104.702 159.174V149.55C104.694 149.533 104.686 149.513 104.676 149.491C104.629 149.384 104.555 149.223 104.451 149.017C104.244 148.604 103.917 148.013 103.448 147.311C102.509 145.906 100.998 144.061 98.7224 142.316C94.2086 138.856 86.6199 135.746 74.3438 137.364L65.5024 146.206ZM136.231 137.364L145.075 146.208C132.563 143.777 122.681 147.086 115.846 151.118C112.255 153.236 109.505 155.553 107.651 157.342C106.918 158.05 106.324 158.675 105.874 159.174V149.551C105.881 149.533 105.89 149.513 105.899 149.491C105.947 149.384 106.021 149.223 106.124 149.017C106.332 148.605 106.658 148.013 107.128 147.311C108.067 145.906 109.577 144.061 111.853 142.316C116.367 138.856 123.955 135.746 136.231 137.364ZM75.6818 136.025C87.3799 134.803 94.8476 137.869 99.4353 141.386C101.83 143.221 103.424 145.167 104.422 146.66C104.521 146.808 104.614 146.951 104.702 147.09V138.199L104.701 138.198C104.633 138.101 104.53 137.959 104.392 137.778C104.116 137.417 103.703 136.905 103.157 136.311C102.064 135.12 100.447 133.603 98.3522 132.297C94.2054 129.711 88.1756 127.936 80.5364 131.17L75.6818 136.025ZM104.02 135.518C104.274 135.795 104.502 136.056 104.702 136.293V126.477C104.666 126.419 104.617 126.342 104.555 126.249C104.401 126.018 104.167 125.689 103.852 125.307C103.221 124.542 102.271 123.572 100.996 122.748C98.4898 121.128 94.6768 120.034 89.412 122.293L82.5009 129.205C89.4303 127.073 95.0179 128.837 98.9724 131.303C101.18 132.679 102.876 134.271 104.02 135.518ZM91.3297 120.375C95.7997 119.143 99.2312 120.212 101.632 121.764C102.996 122.645 104.015 123.674 104.702 124.496V107.001L91.3297 120.375ZM134.893 136.025L130.039 131.17C122.4 127.936 116.37 129.711 112.223 132.297C110.128 133.603 108.512 135.12 107.419 136.311C106.873 136.905 106.459 137.417 106.184 137.778C106.046 137.959 105.943 138.101 105.875 138.198L105.874 138.199V147.09C105.961 146.951 106.054 146.808 106.153 146.66C107.151 145.167 108.745 143.221 111.14 141.386C115.728 137.87 123.196 134.803 134.893 136.025ZM106.555 135.518C106.301 135.795 106.074 136.056 105.874 136.293V126.476C105.909 126.418 105.958 126.342 106.02 126.249C106.173 126.018 106.407 125.689 106.722 125.307C107.353 124.541 108.301 123.572 109.575 122.748C112.081 121.127 115.897 120.031 121.17 122.3L128.074 129.205C121.145 127.073 115.558 128.837 111.603 131.303C109.396 132.679 107.7 134.271 106.555 135.518ZM119.249 120.378L105.874 107.001V124.494C106.559 123.672 107.576 122.645 108.939 121.764C111.34 120.211 114.774 119.141 119.249 120.378Z" fill="url(#paint5_linear_5_1128)"/>
<path fill-rule="evenodd" clip-rule="evenodd" d="M170.729 103.958V0H171.901V103.958H170.729Z" fill="#FF607B"/>
<path fill-rule="evenodd" clip-rule="evenodd" d="M161.188 97.4708C161.459 97.3646 161.764 97.498 161.87 97.7687L162.981 100.601L166.61 101.855C167.565 99.5229 169.315 97.9609 171.315 97.9609C173.317 97.9609 175.069 99.5266 176.023 101.863L179.676 100.601L180.787 97.7687C180.893 97.498 181.198 97.3646 181.469 97.4708C181.74 97.577 181.873 97.8825 181.767 98.1532L180.568 101.211C180.511 101.355 180.395 101.466 180.249 101.517L176.368 102.858C176.583 103.61 176.723 104.419 176.771 105.266L180.112 104.504C180.316 104.457 180.529 104.523 180.671 104.677L183.501 107.726C183.721 107.963 183.707 108.334 183.47 108.554C183.233 108.774 182.862 108.76 182.642 108.523L180.042 105.722L176.778 106.466C176.741 107.285 176.619 108.071 176.425 108.804L178.94 108.23C179.16 108.18 179.389 108.261 179.529 108.438L181.864 111.386C182.065 111.64 182.022 112.008 181.769 112.209C181.515 112.41 181.146 112.368 180.946 112.114L178.84 109.455L175.982 110.107C175.685 110.81 175.316 111.442 174.888 111.978C175.081 112.452 175.188 112.972 175.188 113.517C175.188 115.717 173.454 117.5 171.315 117.5C169.176 117.5 167.442 115.717 167.442 113.517C167.442 112.972 167.548 112.452 167.741 111.979C167.313 111.44 166.942 110.806 166.644 110.1L163.817 109.455L161.712 112.114C161.511 112.368 161.142 112.41 160.889 112.209C160.635 112.008 160.592 111.64 160.793 111.386L163.128 108.438C163.268 108.261 163.497 108.18 163.717 108.23L166.202 108.797C166.009 108.064 165.887 107.279 165.851 106.46L162.615 105.722L160.016 108.523C159.795 108.76 159.425 108.774 159.187 108.554C158.95 108.334 158.936 107.963 159.156 107.726L161.986 104.677C162.128 104.523 162.341 104.457 162.546 104.504L165.859 105.26C165.908 104.412 166.048 103.601 166.264 102.85L162.408 101.517C162.262 101.466 162.146 101.355 162.09 101.211L160.89 98.1532C160.784 97.8825 160.917 97.577 161.188 97.4708Z" fill="url(#paint6_linear_5_1128)"/>
<path d="M257.586 88.9435C257.638 88.8498 257.669 88.7461 257.679 88.6392C257.688 88.5324 257.674 88.4249 257.638 88.3237C257.603 88.2225 257.547 88.13 257.473 88.0522C257.399 87.9744 257.31 87.9131 257.211 87.8723C254.317 86.7186 244.081 83.2942 238.486 90.1979C234.743 94.7353 229.453 97.7262 223.635 98.594C223.489 98.6137 223.352 98.6771 223.242 98.776C223.132 98.8749 223.055 99.0046 223.02 99.1482C222.986 99.2917 222.995 99.4424 223.048 99.5805C223.1 99.7185 223.193 99.8374 223.315 99.9217C228.259 103.428 244.593 112.365 257.586 88.9435Z" fill="url(#paint7_linear_5_1128)"/>
<path d="M40.7566 137.36C40.7979 137.285 40.8229 137.202 40.8299 137.116C40.8369 137.03 40.8258 136.944 40.7973 136.863C40.7688 136.782 40.7235 136.707 40.6645 136.645C40.6054 136.582 40.5339 136.533 40.4545 136.5C38.138 135.584 29.9067 132.837 25.411 138.331C22.4112 141.971 18.1721 144.374 13.5081 145.079C13.391 145.095 13.2814 145.145 13.1936 145.224C13.1059 145.304 13.0441 145.407 13.0164 145.522C12.9886 145.637 12.9963 145.758 13.0383 145.868C13.0803 145.979 13.1547 146.074 13.2517 146.141C17.198 148.998 30.3187 156.176 40.7566 137.36Z" fill="url(#paint8_linear_5_1128)"/>
<path d="M235.064 126.974C235.029 126.912 235.008 126.842 235.002 126.77C234.996 126.699 235.005 126.627 235.03 126.559C235.054 126.491 235.092 126.43 235.142 126.378C235.193 126.327 235.253 126.286 235.32 126.26C237.261 125.482 244.137 123.184 247.891 127.817C250.408 130.865 253.963 132.874 257.872 133.457C257.975 133.466 258.073 133.508 258.152 133.577C258.23 133.645 258.285 133.737 258.308 133.838C258.332 133.94 258.322 134.046 258.282 134.142C258.241 134.238 258.171 134.319 258.082 134.372C254.768 136.744 243.789 142.741 235.064 126.974Z" fill="url(#paint9_linear_5_1128)"/>
<path d="M0.102226 97.2598C0.0457139 97.1551 0.0117607 97.0397 0.00255419 96.9212C-0.00665231 96.8026 0.00909219 96.6833 0.048773 96.5712C0.0884538 96.4591 0.15119 96.3565 0.23294 96.2701C0.314689 96.1836 0.413636 96.1153 0.523406 96.0695C3.72804 94.7968 15.0724 91.0062 21.2711 98.6423C25.4233 103.677 31.296 106.992 37.7521 107.945C37.9135 107.969 38.0641 108.04 38.1843 108.151C38.3045 108.261 38.3888 108.405 38.4263 108.564C38.4638 108.723 38.4527 108.889 38.3945 109.042C38.3364 109.194 38.2337 109.326 38.1 109.419C32.5972 113.301 14.4956 123.208 0.102226 97.2598Z" fill="url(#paint10_linear_5_1128)"/>
<path d="M38.6312 67.5587C38.3164 66.324 39.4562 65.2115 40.6829 65.5563L48.9631 67.8831C50.1898 68.2278 50.5833 69.7712 49.6714 70.6612L43.5162 76.6686C42.6043 77.5586 41.071 77.1277 40.7561 75.893L38.6312 67.5587Z" fill="#FFBEBD"/>
<path d="M228.932 26.9987C229.421 24.9717 232.304 24.9717 232.794 26.9987L234.441 33.8206C234.615 34.5449 235.181 35.1105 235.905 35.2853L242.727 36.9321C244.754 37.4214 244.754 40.3045 242.727 40.7938L235.905 42.4406C235.181 42.6154 234.615 43.181 234.441 43.9053L232.794 50.7272C232.304 52.7542 229.421 52.7542 228.932 50.7272L227.285 43.9053C227.11 43.181 226.545 42.6154 225.821 42.4406L218.999 40.7938C216.972 40.3045 216.972 37.4214 218.999 36.9321L225.821 35.2853C226.545 35.1105 227.11 34.5449 227.285 33.8206L228.932 26.9987Z" fill="#FFBEBD"/>
<path d="M86.9321 223.999C87.4214 221.972 90.3045 221.972 90.7938 223.999L92.4406 230.821C92.6154 231.545 93.181 232.11 93.9053 232.285L100.727 233.932C102.754 234.421 102.754 237.304 100.727 237.794L93.9053 239.441C93.181 239.615 92.6154 240.181 92.4406 240.905L90.7938 247.727C90.3045 249.754 87.4214 249.754 86.9321 247.727L85.2853 240.905C85.1105 240.181 84.5449 239.615 83.8206 239.441L76.9987 237.794C74.9717 237.304 74.9717 234.421 76.9987 233.932L83.8206 232.285C84.5449 232.11 85.1105 231.545 85.2853 230.821L86.9321 223.999Z" fill="#FFBEBD"/>
<path d="M60.3453 213.793C60.3453 216.307 58.3073 218.345 55.7934 218.345C53.2794 218.345 51.2414 216.307 51.2414 213.793C51.2414 211.279 53.2794 209.241 55.7934 209.241C58.3073 209.241 60.3453 211.279 60.3453 213.793Z" stroke="#FFBEBD" stroke-width="2.48287"/>
<circle cx="62.7934" cy="34.7934" r="4.55192" stroke="#FC9999" stroke-width="2.48287"/>
<circle cx="243.793" cy="204.793" r="4.55192" stroke="#FC9999" stroke-width="2.48287"/>
<defs>
<linearGradient id="paint0_linear_5_1128" x1="132.817" y1="-27.3495" x2="135.167" y2="375.463" gradientUnits="userSpaceOnUse">
<stop stop-color="#FFE1E1" stop-opacity="0"/>
<stop offset="1" stop-color="#FFE1E0"/>
</linearGradient>
<linearGradient id="paint1_linear_5_1128" x1="162.644" y1="190.948" x2="258.054" y2="201.849" gradientUnits="userSpaceOnUse">
<stop offset="0.0844027" stop-color="#FFBEBD"/>
<stop offset="1" stop-color="#FFF6F5"/>
</linearGradient>
<linearGradient id="paint2_linear_5_1128" x1="156.547" y1="34.246" x2="140.097" y2="4.19656" gradientUnits="userSpaceOnUse">
<stop stop-color="#FF9999"/>
<stop offset="1" stop-color="#FFE7DA"/>
</linearGradient>
<linearGradient id="paint3_linear_5_1128" x1="207" y1="254.5" x2="71.5327" y2="108.135" gradientUnits="userSpaceOnUse">
<stop stop-color="#FFDEAC"/>
<stop offset="0.70369" stop-color="#FF426F"/>
</linearGradient>
<linearGradient id="paint4_linear_5_1128" x1="160" y1="170.5" x2="117.55" y2="45.6981" gradientUnits="userSpaceOnUse">
<stop stop-color="#FF9999"/>
<stop offset="1" stop-color="#FFE7DA"/>
</linearGradient>
<linearGradient id="paint5_linear_5_1128" x1="228.76" y1="240.143" x2="113.289" y2="83.0437" gradientUnits="userSpaceOnUse">
<stop stop-color="#FFBEBD"/>
<stop offset="1" stop-color="#FFF6F5"/>
</linearGradient>
<linearGradient id="paint6_linear_5_1128" x1="203.394" y1="67.0002" x2="148.176" y2="100.953" gradientUnits="userSpaceOnUse">
<stop stop-color="#FFDEAC"/>
<stop offset="1" stop-color="#FF426F"/>
</linearGradient>
<linearGradient id="paint7_linear_5_1128" x1="266.119" y1="105.501" x2="254.376" y2="78.2141" gradientUnits="userSpaceOnUse">
<stop stop-color="#FF9999"/>
<stop offset="1" stop-color="#FFE7DA"/>
</linearGradient>
<linearGradient id="paint8_linear_5_1128" x1="47.6031" y1="150.656" x2="38.1724" y2="128.752" gradientUnits="userSpaceOnUse">
<stop stop-color="#FF9999"/>
<stop offset="1" stop-color="#FFE7DA"/>
</linearGradient>
<linearGradient id="paint9_linear_5_1128" x1="263.995" y1="138.129" x2="256.082" y2="119.765" gradientUnits="userSpaceOnUse">
<stop stop-color="#FF9999"/>
<stop offset="1" stop-color="#FFE7DA"/>
</linearGradient>
<linearGradient id="paint10_linear_5_1128" x1="47.8021" y1="115.6" x2="34.8023" y2="85.3677" gradientUnits="userSpaceOnUse">
<stop stop-color="#FF9999"/>
<stop offset="1" stop-color="#FFE7DA"/>
</linearGradient>
</defs>
</svg>
