<svg width="113" height="113" viewBox="0 0 113 113" fill="none" xmlns="http://www.w3.org/2000/svg">
<rect x="2.71476" y="2.56943" width="108.066" height="108.066" rx="13.1654" fill="#085D68" stroke="#3DFFFB" stroke-width="4.38848"/>
<path d="M4.90903 33.8374L7.79886 36.366C8.75123 37.1993 9.29751 38.4032 9.29751 39.6687V73.5366C9.29751 74.8021 8.75123 76.006 7.79886 76.8393L4.90903 79.3679V33.8374Z" fill="#3DFFFB"/>
<path d="M108.587 79.3679L105.697 76.8393C104.745 76.006 104.198 74.8021 104.198 73.5366L104.198 39.6687C104.198 38.4032 104.745 37.1993 105.697 36.366L108.587 33.8374L108.587 79.3679Z" fill="#3DFFFB"/>
<path fill-rule="evenodd" clip-rule="evenodd" d="M36.9714 38.3108C42.4958 41.5003 46.0448 46.4036 47.049 50.0457C43.3928 50.9972 34.7424 50.54 29.218 47.3505C24.1528 44.4261 22.9587 39.9225 22.0212 36.3867C21.9362 36.0661 21.8533 35.7535 21.7698 35.4508C25.4261 34.4994 31.447 35.1212 36.9714 38.3108ZM66.4396 50.0457C67.4437 46.4036 70.9927 41.5003 76.5172 38.3108C82.0416 35.1212 88.0625 34.4994 91.7187 35.4508C91.6354 35.7531 91.5526 36.0653 91.4677 36.3854L91.4674 36.3867C90.5299 39.9225 89.3358 44.4261 84.2705 47.3505C78.7461 50.54 70.0958 50.9972 66.4396 50.0457ZM76.304 73.058C78.229 70.4088 79.8526 67.4111 81.0251 64.1622C73.9791 69.9474 64.9188 73.5208 56.7464 73.5208C48.5728 73.5208 39.511 69.9463 32.4645 64.1594C33.6369 67.409 35.2607 70.4074 37.1858 73.057C43.5917 75.2316 50.396 76.4607 56.7463 76.4607C63.0957 76.4607 69.899 75.232 76.304 73.058ZM72.2783 77.6894C67.0971 79.0227 61.7977 79.7521 56.7463 79.7521C51.694 79.7521 46.3936 79.0224 41.2115 77.6887C45.9461 82.2425 51.5905 84.9744 56.7453 84.9744C61.8997 84.9744 67.5438 82.2428 72.2783 77.6894Z" fill="#3DFFFB"/>
</svg>
